<?xml version="1.0" encoding="UTF-8" standalone="no"?>
<svg
   width="156"
   height="141"
   viewBox="0 0 156 141"
   fill="none"
   version="1.1"
   id="svg45"
   sodipodi:docname="indices_interpollen.svg"
   inkscape:version="1.4 (86a8ad7, 2024-10-11)"
   xml:space="preserve"
   inkscape:export-batch-path="Pictos"
   inkscape:export-batch-name=""
   xmlns:inkscape="http://www.inkscape.org/namespaces/inkscape"
   xmlns:sodipodi="http://sodipodi.sourceforge.net/DTD/sodipodi-0.dtd"
   xmlns="http://www.w3.org/2000/svg"
   xmlns:svg="http://www.w3.org/2000/svg"><defs
     id="defs45" /><sodipodi:namedview
     id="namedview45"
     pagecolor="#ffffff"
     bordercolor="#000000"
     borderopacity="0.25"
     inkscape:showpageshadow="2"
     inkscape:pageopacity="0.0"
     inkscape:pagecheckerboard="0"
     inkscape:deskcolor="#d1d1d1"
     inkscape:zoom="0.5"
     inkscape:cx="1280"
     inkscape:cy="107"
     inkscape:window-width="1920"
     inkscape:window-height="1009"
     inkscape:window-x="1912"
     inkscape:window-y="-8"
     inkscape:window-maximized="1"
     inkscape:current-layer="g52"
     showguides="true"><inkscape:page
       x="0"
       y="0"
       width="156"
       height="141"
       id="page47"
       margin="0"
       bleed="0"
       inkscape:label="indice_interpollen_2" /><sodipodi:guide
       position="13.677,4.132137"
       orientation="0,-1"
       id="guide49"
       inkscape:locked="false" /><sodipodi:guide
       position="706.9436,16.21768"
       orientation="0,-1"
       id="guide53"
       inkscape:locked="false" /></sodipodi:namedview><g
     style="fill:none"
     id="g47"
     transform="translate(-13.57059,0.44235362)"
     inkscape:label="indice_interpollen_2"><path
       d="m 64.9332,94.9207 c 0,0 -18.6028,-0.6498 -18.0618,-20.845 0.037,-1.382 21.9507,2.821 18.0618,20.845 z"
       fill="#50ccaa"
       id="path1-8" /><path
       d="m 79.6769,58.78 c 0,0 -16.9827,0.3963 -17.6722,-19.0749 -0.0489,-1.3817 19.4802,1.033 17.6722,19.0749 z"
       fill="#ffffff"
       id="path2-7" /><path
       d="m 79.6769,39.0399 c 0,0 -17.1011,-4.432 -7.5664,-24.1213 0.267,-0.5512 14.9843,8.5761 7.5664,24.1213 z"
       fill="#ffffff"
       id="path3-4" /><path
       d="m 102.892,22.895 c 0,0 2.877,17.029 -15.943,20.2338 -1.363,0.232 -0.832,-19.8884 15.943,-20.2338 z"
       fill="#ffffff"
       id="path4-27" /><path
       d="m 108.959,49.4871 c 0,0 -7.337,18.5859 -22.9882,12.2275 -1.0133,-0.4116 5.3801,-16.1403 22.9882,-12.2275 z"
       fill="#ffffff"
       id="path5-7" /><path
       d="m 107.491,72.4749 c 0,0 -7.8617,16.0592 -25.9222,9.2929 -1.2946,-0.485 6.2695,-15.9504 25.9222,-9.2929 z"
       fill="#ffffff"
       id="path6-9" /><path
       d="m 86.949,114.049 c 0,0 -12.0647,15.651 -29.3462,3.423 -1.1286,-0.798 11.2494,-13.695 29.3462,-3.423 z"
       fill="#50ccaa"
       id="path7-3" /><path
       d="m 74.8843,76.6428 c 0,0 -17.5891,2.4807 -19.0569,-19.0172 -0.0942,-1.3793 22.3307,1.3552 19.0569,19.0172 z"
       fill="#ffffff"
       id="path8-19" /><path
       d="m 101.071,92.2935 c 0,0 -12.7743,19.1105 -29.5141,8.2545 -1.16,-0.7523 8.5446,-16.3347 29.5141,-8.2545 z"
       fill="#50ccaa"
       id="path9-8" /><path
       d="m 85.9706,27.4765 c 0,0 -8.8026,-14.6712 4.4023,-26.41118 0.4576,-0.406892 7.8266,13.85328 -4.4023,26.41118 z"
       fill="#ffffff"
       id="path10-6" /><path
       d="m 49.3993,111.537 c 0,0 -19.1574,-3.424 -15.6513,-25.4331 0.2175,-1.3654 18.5859,5.3801 15.6513,25.4331 z"
       fill="#50ccaa"
       id="path11-5" /><path
       d="M 40.0899,122.375 C 65.7486,106.864 86.0141,85.0021 83.2052,41.5176 m -18.272,53.4031 c 0,0 -18.6028,-0.6498 -18.0618,-20.845 0.037,-1.382 21.9507,2.821 18.0618,20.845 z M 79.6769,58.78 c 0,0 -16.9827,0.3963 -17.6722,-19.0749 -0.0489,-1.3817 19.4802,1.033 17.6722,19.0749 z m 0,-19.7401 c 0,0 -17.1011,-4.432 -7.5664,-24.1213 0.267,-0.5512 14.9843,8.5761 7.5664,24.1213 z M 102.892,22.895 c 0,0 2.877,17.029 -15.943,20.2338 -1.363,0.2321 -0.832,-19.8884 15.943,-20.2338 z m 6.067,26.5921 c 0,0 -7.337,18.5859 -22.9882,12.2275 -1.0133,-0.4116 5.3801,-16.1403 22.9882,-12.2275 z m -1.468,22.9878 c 0,0 -7.8617,16.0592 -25.9222,9.2929 -1.2946,-0.485 6.2695,-15.9504 25.9222,-9.2929 z M 86.949,114.049 c 0,0 -12.0647,15.651 -29.3462,3.423 -1.1286,-0.798 11.2494,-13.695 29.3462,-3.423 z M 74.8843,76.6428 c 0,0 -17.5891,2.4807 -19.0569,-19.0172 -0.0942,-1.3793 22.3307,1.3552 19.0569,19.0172 z m 26.1867,15.6507 c 0,0 -12.7743,19.1105 -29.5141,8.2545 -1.16,-0.7523 8.5446,-16.3347 29.5141,-8.2545 z M 85.9706,27.4765 c 0,0 -8.8026,-14.6712 4.4023,-26.41118 0.4576,-0.40689 7.8266,13.85328 -4.4023,26.41118 z M 49.3993,111.537 c 0,0 -19.1574,-3.424 -15.6513,-25.4331 0.2175,-1.3654 18.5859,5.3801 15.6513,25.4331 z"
       stroke="#50ccaa"
       stroke-width="2"
       stroke-linecap="round"
       id="path12-0" /><circle
       cx="136.895"
       cy="10.895"
       r="2.9621899"
       transform="rotate(-30.4708,136.895,10.895)"
       fill="#50ccaa"
       stroke="#50ccaa"
       stroke-width="0.5"
       id="circle12-28" /><path
       d="m 130.169,43.6561 c 0.829,1.41 0.359,3.2256 -1.051,4.0552 -1.41,0.8296 -3.226,0.359 -4.055,-1.051 -0.83,-1.41 -0.359,-3.2256 1.051,-4.0552 1.41,-0.8296 3.225,-0.359 4.055,1.051 z"
       fill="#50ccaa"
       stroke="#50ccaa"
       stroke-width="0.5"
       id="path13-6" /><circle
       cx="117.622"
       cy="62.290199"
       r="2.9621899"
       transform="rotate(-30.4708,117.622,62.2902)"
       fill="#50ccaa"
       stroke="#50ccaa"
       stroke-width="0.5"
       id="circle13-0" /><circle
       cx="147.603"
       cy="26.599001"
       r="2.9621899"
       transform="rotate(-30.4708,147.603,26.599)"
       fill="#50ccaa"
       stroke="#50ccaa"
       stroke-width="0.5"
       id="circle14-2" /><circle
       cx="120.301"
       cy="20.107401"
       r="2.9621899"
       transform="rotate(-30.4708,120.301,20.1074)"
       fill="#50ccaa"
       stroke="#50ccaa"
       stroke-width="0.5"
       id="circle15-48" /><circle
       cx="113.444"
       cy="34.494301"
       r="1.42764"
       transform="rotate(-30.4708,113.444,34.4943)"
       fill="#949494"
       id="circle16-6" /><circle
       cx="113.444"
       cy="34.494301"
       r="1.42764"
       transform="rotate(-30.4708,113.444,34.4943)"
       fill="#949494"
       id="circle17-5" /><circle
       cx="113.444"
       cy="34.494301"
       r="1.42764"
       transform="rotate(-30.4708,113.444,34.4943)"
       fill="#949494"
       id="circle18-0" /><circle
       cx="113.444"
       cy="34.494301"
       r="1.42764"
       transform="rotate(-30.4708,113.444,34.4943)"
       fill="#949494"
       id="circle19-9" /><circle
       cx="113.444"
       cy="34.494301"
       r="1.42764"
       transform="rotate(-30.4708,113.444,34.4943)"
       fill="#949494"
       id="circle20-0" /><circle
       cx="129.45599"
       cy="24.156"
       r="1.42764"
       transform="rotate(-30.4708,129.456,24.156)"
       fill="#949494"
       id="circle21-0" /><circle
       cx="129.45599"
       cy="24.156"
       r="1.42764"
       transform="rotate(-30.4708,129.456,24.156)"
       fill="#949494"
       id="circle22-6" /><circle
       cx="129.45599"
       cy="24.156"
       r="1.42764"
       transform="rotate(-30.4708,129.456,24.156)"
       fill="#949494"
       id="circle23-1" /><circle
       cx="129.45599"
       cy="24.156"
       r="1.42764"
       transform="rotate(-30.4708,129.456,24.156)"
       fill="#949494"
       id="circle24-3" /><circle
       cx="129.45599"
       cy="24.156"
       r="1.42764"
       transform="rotate(-30.4708,129.456,24.156)"
       fill="#949494"
       id="circle25-8" /><circle
       cx="132.311"
       cy="59.847"
       r="1.42764"
       transform="rotate(-30.4708,132.311,59.847)"
       fill="#949494"
       id="circle26-9" /><circle
       cx="132.311"
       cy="59.847"
       r="1.42764"
       transform="rotate(-30.4708,132.311,59.847)"
       fill="#949494"
       id="circle27-3" /><circle
       cx="132.311"
       cy="59.847"
       r="1.42764"
       transform="rotate(-30.4708,132.311,59.847)"
       fill="#949494"
       id="circle28-4" /><circle
       cx="132.311"
       cy="59.847"
       r="1.42764"
       transform="rotate(-30.4708,132.311,59.847)"
       fill="#949494"
       id="circle29-4" /><circle
       cx="132.311"
       cy="59.847"
       r="1.42764"
       transform="rotate(-30.4708,132.311,59.847)"
       fill="#949494"
       id="circle30-6" /><circle
       cx="108.013"
       cy="11.1874"
       r="1.42764"
       transform="rotate(-30.4708,108.013,11.1874)"
       fill="#949494"
       id="circle31-0" /><circle
       cx="108.013"
       cy="11.1874"
       r="1.42764"
       transform="rotate(-30.4708,108.013,11.1874)"
       fill="#949494"
       id="circle32-6" /><circle
       cx="108.013"
       cy="11.1874"
       r="1.42764"
       transform="rotate(-30.4708,108.013,11.1874)"
       fill="#949494"
       id="circle33-6" /><circle
       cx="108.013"
       cy="11.1874"
       r="1.42764"
       transform="rotate(-30.4708,108.013,11.1874)"
       fill="#949494"
       id="circle34-1" /><circle
       cx="108.013"
       cy="11.1874"
       r="1.42764"
       transform="rotate(-30.4708,108.013,11.1874)"
       fill="#949494"
       id="circle35-8" /><circle
       cx="138.735"
       cy="39.146198"
       r="1.42764"
       transform="rotate(-30.4708,138.735,39.1462)"
       fill="#949494"
       id="circle36-4" /><circle
       cx="138.735"
       cy="39.146198"
       r="1.42764"
       transform="rotate(-30.4708,138.735,39.1462)"
       fill="#949494"
       id="circle37-9" /><circle
       cx="138.735"
       cy="39.146198"
       r="1.42764"
       transform="rotate(-30.4708,138.735,39.1462)"
       fill="#949494"
       id="circle38-6" /><circle
       cx="138.735"
       cy="39.146198"
       r="1.42764"
       transform="rotate(-30.4708,138.735,39.1462)"
       fill="#949494"
       id="circle39-3" /><circle
       cx="138.735"
       cy="39.146198"
       r="1.42764"
       transform="rotate(-30.4708,138.735,39.1462)"
       fill="#949494"
       id="circle40-7" /></g></svg>
