<?xml version="1.0" encoding="UTF-8" standalone="no"?>
<svg
   width="156"
   height="141"
   viewBox="0 0 156 141"
   fill="none"
   version="1.1"
   id="svg45"
   sodipodi:docname="indices_interpollen.svg"
   inkscape:version="1.4 (86a8ad7, 2024-10-11)"
   xml:space="preserve"
   inkscape:export-batch-path="Pictos"
   inkscape:export-batch-name=""
   xmlns:inkscape="http://www.inkscape.org/namespaces/inkscape"
   xmlns:sodipodi="http://sodipodi.sourceforge.net/DTD/sodipodi-0.dtd"
   xmlns="http://www.w3.org/2000/svg"
   xmlns:svg="http://www.w3.org/2000/svg"><defs
     id="defs45" /><sodipodi:namedview
     id="namedview45"
     pagecolor="#ffffff"
     bordercolor="#000000"
     borderopacity="0.25"
     inkscape:showpageshadow="2"
     inkscape:pageopacity="0.0"
     inkscape:pagecheckerboard="0"
     inkscape:deskcolor="#d1d1d1"
     inkscape:zoom="0.5"
     inkscape:cx="1280"
     inkscape:cy="107"
     inkscape:window-width="1920"
     inkscape:window-height="1009"
     inkscape:window-x="1912"
     inkscape:window-y="-8"
     inkscape:window-maximized="1"
     inkscape:current-layer="g52"
     showguides="true"><sodipodi:guide
       position="-318.323,4.132137"
       orientation="0,-1"
       id="guide49"
       inkscape:locked="false" /><inkscape:page
       x="0"
       y="0"
       width="156"
       height="141"
       id="page49"
       margin="0"
       bleed="0"
       inkscape:label="indice_interpollen_4" /><sodipodi:guide
       position="374.9436,16.21768"
       orientation="0,-1"
       id="guide53"
       inkscape:locked="false" /></sodipodi:namedview><g
     style="fill:none"
     id="g49"
     transform="translate(-15.8698,-0.05838317)"
     inkscape:label="indice_interpollen_4"><path
       d="m 66.38,97.0133 c 0,0 -19.0173,-0.6642 -18.4642,-21.3094 0.0378,-1.4129 22.4398,2.8838 18.4642,21.3094 z"
       fill="#ff5050"
       id="path1-82" /><path
       d="m 81.4523,60.0674 c 0,0 -17.3612,0.4051 -18.066,-19.5 -0.05,-1.4125 19.9142,1.056 18.066,19.5 z"
       fill="#ff5050"
       id="path2-6" /><path
       d="m 81.4523,39.8874 c 0,0 -17.4822,-4.5307 -7.735,-24.6588 0.2728,-0.5635 15.3182,8.7672 7.735,24.6588 z"
       fill="#ffffff"
       id="path3-6" /><path
       d="m 105.185,23.3827 c 0,0 2.94,17.4085 -16.2987,20.6846 -1.3933,0.2373 -0.8504,-20.3315 16.2987,-20.6846 z"
       fill="#ffffff"
       id="path4-0" /><path
       d="m 111.386,50.5674 c 0,0 -7.5,19 -23.4997,12.5 -1.0358,-0.4209 5.5,-16.5001 23.4997,-12.5 z"
       fill="#ff5050"
       id="path5-3" /><path
       d="m 109.886,74.0674 c 0,0 -8.037,16.417 -26.4997,9.5 -1.3235,-0.4959 6.4092,-16.3059 26.4997,-9.5 z"
       fill="#ff5050"
       id="path6-8" /><path
       d="m 88.8863,116.567 c 0,0 -12.3334,16 -30,3.5 -1.1537,-0.816 11.5,-14 30,-3.5 z"
       fill="#ff5050"
       id="path7-0" /><path
       d="m 76.5529,78.3281 c 0,0 -17.9811,2.5361 -19.4816,-19.4409 -0.0962,-1.4101 22.8283,1.3854 19.4816,19.4409 z"
       fill="#ff5050"
       id="path8-12" /><path
       d="m 103.323,94.3275 c 0,0 -13.0589,19.5365 -30.1717,8.4385 -1.1858,-0.769 8.735,-16.6986 30.1717,-8.4385 z"
       fill="#ff5050"
       id="path9-5" /><path
       d="m 87.8862,28.0663 c 0,0 -8.9987,-14.9981 4.5003,-26.99964 0.4679,-0.415961 8.0015,14.16204 -4.5003,26.99964 z"
       fill="#ffffff"
       id="path10-0" /><path
       d="m 50.5,114 c 0,0 -19.5842,-3.5 -16,-26 0.2223,-1.3957 19,5.5 16,26 z"
       fill="#ff5050"
       id="path11-9" /><path
       d="M 40.9832,125.079 C 67.2136,109.223 87.9306,86.8736 85.0592,42.4203 M 66.38,97.0133 c 0,0 -19.0173,-0.6642 -18.4642,-21.3094 0.0378,-1.4129 22.4398,2.8838 18.4642,21.3094 z M 81.4523,60.0674 c 0,0 -17.3612,0.4051 -18.066,-19.5 -0.05,-1.4125 19.9142,1.056 18.066,19.5 z m 0,-20.18 c 0,0 -17.4822,-4.5307 -7.735,-24.6588 0.2728,-0.5635 15.3182,8.7672 7.735,24.6588 z M 105.185,23.3827 c 0,0 2.94,17.4085 -16.2987,20.6846 -1.3932,0.2373 -0.8504,-20.3315 16.2987,-20.6846 z m 6.201,27.1847 c 0,0 -7.5,19 -23.4997,12.5 -1.0358,-0.4209 5.5,-16.5001 23.4997,-12.5 z m -1.5,23.5 c 0,0 -8.037,16.417 -26.4997,9.5 -1.3235,-0.4959 6.4092,-16.3059 26.4997,-9.5 z M 88.8863,116.567 c 0,0 -12.3334,16 -30,3.5 -1.1537,-0.816 11.5,-14 30,-3.5 z M 76.5529,78.3281 c 0,0 -17.9811,2.5361 -19.4816,-19.4409 -0.0962,-1.4101 22.8283,1.3854 19.4816,19.4409 z m 26.7701,15.9994 c 0,0 -13.0589,19.5365 -30.1717,8.4385 -1.1858,-0.769 8.735,-16.6986 30.1717,-8.4385 z M 87.8862,28.0663 c 0,0 -8.9987,-14.9981 4.5003,-26.99964 C 92.8544,0.6507 100.388,15.2287 87.8862,28.0663 Z M 50.5,114 c 0,0 -19.5842,-3.5 -16,-26 0.2223,-1.3957 19,5.5 16,26 z"
       stroke="#ff5050"
       id="path12-4" /><circle
       cx="139.94501"
       cy="11.1154"
       r="3.0337601"
       transform="rotate(-30.4708,139.945,11.1154)"
       fill="#ff5050"
       stroke="#ff5050"
       stroke-width="0.5"
       id="circle12-7" /><path
       d="m 133.074,44.6037 c 0.85,1.4441 0.368,3.3035 -1.076,4.1532 -1.444,0.8496 -3.304,0.3677 -4.153,-1.0764 -0.85,-1.4441 -0.368,-3.3035 1.076,-4.1531 1.444,-0.8497 3.303,-0.3678 4.153,1.0763 z"
       fill="#ff5050"
       stroke="#ff5050"
       stroke-width="0.5"
       id="path13-8" /><circle
       cx="120.243"
       cy="63.655602"
       r="3.0337601"
       transform="rotate(-30.4708,120.243,63.6556)"
       fill="#ff5050"
       stroke="#ff5050"
       stroke-width="0.5"
       id="circle13-3" /><circle
       cx="150.89101"
       cy="27.1693"
       r="3.0337601"
       transform="rotate(-30.4708,150.891,27.1693)"
       fill="#ff5050"
       stroke="#ff5050"
       stroke-width="0.5"
       id="circle14-5" /><circle
       cx="122.981"
       cy="20.533199"
       r="3.0337601"
       transform="rotate(-30.4708,122.981,20.5332)"
       fill="#ff5050"
       stroke="#ff5050"
       stroke-width="0.5"
       id="circle15-1" /><circle
       cx="115.971"
       cy="35.2407"
       r="1.45945"
       transform="rotate(-30.4708,115.971,35.2407)"
       fill="#949494"
       id="circle16-20" /><circle
       cx="115.971"
       cy="35.2407"
       r="1.45945"
       transform="rotate(-30.4708,115.971,35.2407)"
       fill="#949494"
       id="circle17-1" /><circle
       cx="115.971"
       cy="35.2407"
       r="1.45945"
       transform="rotate(-30.4708,115.971,35.2407)"
       fill="#949494"
       id="circle18-6" /><circle
       cx="115.971"
       cy="35.2407"
       r="1.45945"
       transform="rotate(-30.4708,115.971,35.2407)"
       fill="#949494"
       id="circle19-4" /><circle
       cx="115.971"
       cy="35.2407"
       r="1.45945"
       transform="rotate(-30.4708,115.971,35.2407)"
       fill="#949494"
       id="circle20-06" /><circle
       cx="132.34"
       cy="24.671801"
       r="1.45945"
       transform="rotate(-30.4708,132.34,24.6718)"
       fill="#949494"
       id="circle21-1" /><circle
       cx="132.34"
       cy="24.671801"
       r="1.45945"
       transform="rotate(-30.4708,132.34,24.6718)"
       fill="#949494"
       id="circle22-89" /><circle
       cx="132.34"
       cy="24.671801"
       r="1.45945"
       transform="rotate(-30.4708,132.34,24.6718)"
       fill="#949494"
       id="circle23-8" /><circle
       cx="132.34"
       cy="24.671801"
       r="1.45945"
       transform="rotate(-30.4708,132.34,24.6718)"
       fill="#949494"
       id="circle24-4" /><circle
       cx="132.34"
       cy="24.671801"
       r="1.45945"
       transform="rotate(-30.4708,132.34,24.6718)"
       fill="#949494"
       id="circle25-1" /><circle
       cx="135.259"
       cy="61.1581"
       r="1.45945"
       transform="rotate(-30.4708,135.259,61.1581)"
       fill="#949494"
       id="circle26-4" /><circle
       cx="135.259"
       cy="61.1581"
       r="1.45945"
       transform="rotate(-30.4708,135.259,61.1581)"
       fill="#949494"
       id="circle27-39" /><circle
       cx="135.259"
       cy="61.1581"
       r="1.45945"
       transform="rotate(-30.4708,135.259,61.1581)"
       fill="#949494"
       id="circle28-8" /><circle
       cx="135.259"
       cy="61.1581"
       r="1.45945"
       transform="rotate(-30.4708,135.259,61.1581)"
       fill="#949494"
       id="circle29-8" /><circle
       cx="135.259"
       cy="61.1581"
       r="1.45945"
       transform="rotate(-30.4708,135.259,61.1581)"
       fill="#949494"
       id="circle30-08" /><circle
       cx="110.419"
       cy="11.4143"
       r="1.45945"
       transform="rotate(-30.4708,110.419,11.4143)"
       fill="#949494"
       id="circle31-77" /><circle
       cx="110.419"
       cy="11.4143"
       r="1.45945"
       transform="rotate(-30.4708,110.419,11.4143)"
       fill="#949494"
       id="circle32-8" /><circle
       cx="110.419"
       cy="11.4143"
       r="1.45945"
       transform="rotate(-30.4708,110.419,11.4143)"
       fill="#949494"
       id="circle33-3" /><circle
       cx="110.419"
       cy="11.4143"
       r="1.45945"
       transform="rotate(-30.4708,110.419,11.4143)"
       fill="#949494"
       id="circle34-8" /><circle
       cx="110.419"
       cy="11.4143"
       r="1.45945"
       transform="rotate(-30.4708,110.419,11.4143)"
       fill="#949494"
       id="circle35-3" /><circle
       cx="141.826"
       cy="39.995998"
       r="1.45945"
       transform="rotate(-30.4708,141.826,39.996)"
       fill="#949494"
       id="circle36-71" /><circle
       cx="141.826"
       cy="39.995998"
       r="1.45945"
       transform="rotate(-30.4708,141.826,39.996)"
       fill="#949494"
       id="circle37-0" /><circle
       cx="141.826"
       cy="39.995998"
       r="1.45945"
       transform="rotate(-30.4708,141.826,39.996)"
       fill="#949494"
       id="circle38-7" /><circle
       cx="141.826"
       cy="39.995998"
       r="1.45945"
       transform="rotate(-30.4708,141.826,39.996)"
       fill="#949494"
       id="circle39-34" /><circle
       cx="141.826"
       cy="39.995998"
       r="1.45945"
       transform="rotate(-30.4708,141.826,39.996)"
       fill="#949494"
       id="circle40-96" /></g></svg>
