<?xml version="1.0" encoding="UTF-8" standalone="no"?>
<svg
   width="156"
   height="141"
   viewBox="0 0 156 141"
   fill="none"
   version="1.1"
   id="svg45"
   sodipodi:docname="indices_interpollen.svg"
   inkscape:version="1.4 (86a8ad7, 2024-10-11)"
   xml:space="preserve"
   inkscape:export-batch-path="Pictos"
   inkscape:export-batch-name=""
   xmlns:inkscape="http://www.inkscape.org/namespaces/inkscape"
   xmlns:sodipodi="http://sodipodi.sourceforge.net/DTD/sodipodi-0.dtd"
   xmlns="http://www.w3.org/2000/svg"
   xmlns:svg="http://www.w3.org/2000/svg"><defs
     id="defs45" /><sodipodi:namedview
     id="namedview45"
     pagecolor="#ffffff"
     bordercolor="#000000"
     borderopacity="0.25"
     inkscape:showpageshadow="2"
     inkscape:pageopacity="0.0"
     inkscape:pagecheckerboard="0"
     inkscape:deskcolor="#d1d1d1"
     inkscape:zoom="0.5"
     inkscape:cx="1280"
     inkscape:cy="107"
     inkscape:window-width="1920"
     inkscape:window-height="1009"
     inkscape:window-x="1912"
     inkscape:window-y="-8"
     inkscape:window-maximized="1"
     inkscape:current-layer="g52"
     showguides="true"><inkscape:page
       x="0"
       y="0"
       width="156"
       height="141"
       id="page48"
       margin="0"
       bleed="0"
       inkscape:label="inidce_interpollen_3" /><sodipodi:guide
       position="-152.323,4.132137"
       orientation="0,-1"
       id="guide49"
       inkscape:locked="false" /><sodipodi:guide
       position="540.9436,16.21768"
       orientation="0,-1"
       id="guide53"
       inkscape:locked="false" /></sodipodi:namedview><g
     style="fill:none"
     id="g47"
     transform="translate(-179.57059,0.44235362)"
     inkscape:label="indice_interpollen_2"><path
       d="m 64.9332,94.9207 c 0,0 -18.6028,-0.6498 -18.0618,-20.845 0.037,-1.382 21.9507,2.821 18.0618,20.845 z"
       fill="#50ccaa"
       id="path1-8" /><path
       d="m 79.6769,58.78 c 0,0 -16.9827,0.3963 -17.6722,-19.0749 -0.0489,-1.3817 19.4802,1.033 17.6722,19.0749 z"
       fill="#ffffff"
       id="path2-7" /><path
       d="m 79.6769,39.0399 c 0,0 -17.1011,-4.432 -7.5664,-24.1213 0.267,-0.5512 14.9843,8.5761 7.5664,24.1213 z"
       fill="#ffffff"
       id="path3-4" /><path
       d="m 102.892,22.895 c 0,0 2.877,17.029 -15.943,20.2338 -1.363,0.232 -0.832,-19.8884 15.943,-20.2338 z"
       fill="#ffffff"
       id="path4-27" /><path
       d="m 108.959,49.4871 c 0,0 -7.337,18.5859 -22.9882,12.2275 -1.0133,-0.4116 5.3801,-16.1403 22.9882,-12.2275 z"
       fill="#ffffff"
       id="path5-7" /><path
       d="m 107.491,72.4749 c 0,0 -7.8617,16.0592 -25.9222,9.2929 -1.2946,-0.485 6.2695,-15.9504 25.9222,-9.2929 z"
       fill="#ffffff"
       id="path6-9" /><path
       d="m 86.949,114.049 c 0,0 -12.0647,15.651 -29.3462,3.423 -1.1286,-0.798 11.2494,-13.695 29.3462,-3.423 z"
       fill="#50ccaa"
       id="path7-3" /><path
       d="m 74.8843,76.6428 c 0,0 -17.5891,2.4807 -19.0569,-19.0172 -0.0942,-1.3793 22.3307,1.3552 19.0569,19.0172 z"
       fill="#ffffff"
       id="path8-19" /><path
       d="m 101.071,92.2935 c 0,0 -12.7743,19.1105 -29.5141,8.2545 -1.16,-0.7523 8.5446,-16.3347 29.5141,-8.2545 z"
       fill="#50ccaa"
       id="path9-8" /><path
       d="m 85.9706,27.4765 c 0,0 -8.8026,-14.6712 4.4023,-26.41118 0.4576,-0.406892 7.8266,13.85328 -4.4023,26.41118 z"
       fill="#ffffff"
       id="path10-6" /><path
       d="m 49.3993,111.537 c 0,0 -19.1574,-3.424 -15.6513,-25.4331 0.2175,-1.3654 18.5859,5.3801 15.6513,25.4331 z"
       fill="#50ccaa"
       id="path11-5" /><path
       d="M 40.0899,122.375 C 65.7486,106.864 86.0141,85.0021 83.2052,41.5176 m -18.272,53.4031 c 0,0 -18.6028,-0.6498 -18.0618,-20.845 0.037,-1.382 21.9507,2.821 18.0618,20.845 z M 79.6769,58.78 c 0,0 -16.9827,0.3963 -17.6722,-19.0749 -0.0489,-1.3817 19.4802,1.033 17.6722,19.0749 z m 0,-19.7401 c 0,0 -17.1011,-4.432 -7.5664,-24.1213 0.267,-0.5512 14.9843,8.5761 7.5664,24.1213 z M 102.892,22.895 c 0,0 2.877,17.029 -15.943,20.2338 -1.363,0.2321 -0.832,-19.8884 15.943,-20.2338 z m 6.067,26.5921 c 0,0 -7.337,18.5859 -22.9882,12.2275 -1.0133,-0.4116 5.3801,-16.1403 22.9882,-12.2275 z m -1.468,22.9878 c 0,0 -7.8617,16.0592 -25.9222,9.2929 -1.2946,-0.485 6.2695,-15.9504 25.9222,-9.2929 z M 86.949,114.049 c 0,0 -12.0647,15.651 -29.3462,3.423 -1.1286,-0.798 11.2494,-13.695 29.3462,-3.423 z M 74.8843,76.6428 c 0,0 -17.5891,2.4807 -19.0569,-19.0172 -0.0942,-1.3793 22.3307,1.3552 19.0569,19.0172 z m 26.1867,15.6507 c 0,0 -12.7743,19.1105 -29.5141,8.2545 -1.16,-0.7523 8.5446,-16.3347 29.5141,-8.2545 z M 85.9706,27.4765 c 0,0 -8.8026,-14.6712 4.4023,-26.41118 0.4576,-0.40689 7.8266,13.85328 -4.4023,26.41118 z M 49.3993,111.537 c 0,0 -19.1574,-3.424 -15.6513,-25.4331 0.2175,-1.3654 18.5859,5.3801 15.6513,25.4331 z"
       stroke="#50ccaa"
       stroke-width="2"
       stroke-linecap="round"
       id="path12-0" /><circle
       cx="136.895"
       cy="10.895"
       r="2.9621899"
       transform="rotate(-30.4708,136.895,10.895)"
       fill="#50ccaa"
       stroke="#50ccaa"
       stroke-width="0.5"
       id="circle12-28" /><path
       d="m 130.169,43.6561 c 0.829,1.41 0.359,3.2256 -1.051,4.0552 -1.41,0.8296 -3.226,0.359 -4.055,-1.051 -0.83,-1.41 -0.359,-3.2256 1.051,-4.0552 1.41,-0.8296 3.225,-0.359 4.055,1.051 z"
       fill="#50ccaa"
       stroke="#50ccaa"
       stroke-width="0.5"
       id="path13-6" /><circle
       cx="117.622"
       cy="62.290199"
       r="2.9621899"
       transform="rotate(-30.4708,117.622,62.2902)"
       fill="#50ccaa"
       stroke="#50ccaa"
       stroke-width="0.5"
       id="circle13-0" /><circle
       cx="147.603"
       cy="26.599001"
       r="2.9621899"
       transform="rotate(-30.4708,147.603,26.599)"
       fill="#50ccaa"
       stroke="#50ccaa"
       stroke-width="0.5"
       id="circle14-2" /><circle
       cx="120.301"
       cy="20.107401"
       r="2.9621899"
       transform="rotate(-30.4708,120.301,20.1074)"
       fill="#50ccaa"
       stroke="#50ccaa"
       stroke-width="0.5"
       id="circle15-48" /><circle
       cx="113.444"
       cy="34.494301"
       r="1.42764"
       transform="rotate(-30.4708,113.444,34.4943)"
       fill="#949494"
       id="circle16-6" /><circle
       cx="113.444"
       cy="34.494301"
       r="1.42764"
       transform="rotate(-30.4708,113.444,34.4943)"
       fill="#949494"
       id="circle17-5" /><circle
       cx="113.444"
       cy="34.494301"
       r="1.42764"
       transform="rotate(-30.4708,113.444,34.4943)"
       fill="#949494"
       id="circle18-0" /><circle
       cx="113.444"
       cy="34.494301"
       r="1.42764"
       transform="rotate(-30.4708,113.444,34.4943)"
       fill="#949494"
       id="circle19-9" /><circle
       cx="113.444"
       cy="34.494301"
       r="1.42764"
       transform="rotate(-30.4708,113.444,34.4943)"
       fill="#949494"
       id="circle20-0" /><circle
       cx="129.45599"
       cy="24.156"
       r="1.42764"
       transform="rotate(-30.4708,129.456,24.156)"
       fill="#949494"
       id="circle21-0" /><circle
       cx="129.45599"
       cy="24.156"
       r="1.42764"
       transform="rotate(-30.4708,129.456,24.156)"
       fill="#949494"
       id="circle22-6" /><circle
       cx="129.45599"
       cy="24.156"
       r="1.42764"
       transform="rotate(-30.4708,129.456,24.156)"
       fill="#949494"
       id="circle23-1" /><circle
       cx="129.45599"
       cy="24.156"
       r="1.42764"
       transform="rotate(-30.4708,129.456,24.156)"
       fill="#949494"
       id="circle24-3" /><circle
       cx="129.45599"
       cy="24.156"
       r="1.42764"
       transform="rotate(-30.4708,129.456,24.156)"
       fill="#949494"
       id="circle25-8" /><circle
       cx="132.311"
       cy="59.847"
       r="1.42764"
       transform="rotate(-30.4708,132.311,59.847)"
       fill="#949494"
       id="circle26-9" /><circle
       cx="132.311"
       cy="59.847"
       r="1.42764"
       transform="rotate(-30.4708,132.311,59.847)"
       fill="#949494"
       id="circle27-3" /><circle
       cx="132.311"
       cy="59.847"
       r="1.42764"
       transform="rotate(-30.4708,132.311,59.847)"
       fill="#949494"
       id="circle28-4" /><circle
       cx="132.311"
       cy="59.847"
       r="1.42764"
       transform="rotate(-30.4708,132.311,59.847)"
       fill="#949494"
       id="circle29-4" /><circle
       cx="132.311"
       cy="59.847"
       r="1.42764"
       transform="rotate(-30.4708,132.311,59.847)"
       fill="#949494"
       id="circle30-6" /><circle
       cx="108.013"
       cy="11.1874"
       r="1.42764"
       transform="rotate(-30.4708,108.013,11.1874)"
       fill="#949494"
       id="circle31-0" /><circle
       cx="108.013"
       cy="11.1874"
       r="1.42764"
       transform="rotate(-30.4708,108.013,11.1874)"
       fill="#949494"
       id="circle32-6" /><circle
       cx="108.013"
       cy="11.1874"
       r="1.42764"
       transform="rotate(-30.4708,108.013,11.1874)"
       fill="#949494"
       id="circle33-6" /><circle
       cx="108.013"
       cy="11.1874"
       r="1.42764"
       transform="rotate(-30.4708,108.013,11.1874)"
       fill="#949494"
       id="circle34-1" /><circle
       cx="108.013"
       cy="11.1874"
       r="1.42764"
       transform="rotate(-30.4708,108.013,11.1874)"
       fill="#949494"
       id="circle35-8" /><circle
       cx="138.735"
       cy="39.146198"
       r="1.42764"
       transform="rotate(-30.4708,138.735,39.1462)"
       fill="#949494"
       id="circle36-4" /><circle
       cx="138.735"
       cy="39.146198"
       r="1.42764"
       transform="rotate(-30.4708,138.735,39.1462)"
       fill="#949494"
       id="circle37-9" /><circle
       cx="138.735"
       cy="39.146198"
       r="1.42764"
       transform="rotate(-30.4708,138.735,39.1462)"
       fill="#949494"
       id="circle38-6" /><circle
       cx="138.735"
       cy="39.146198"
       r="1.42764"
       transform="rotate(-30.4708,138.735,39.1462)"
       fill="#949494"
       id="circle39-3" /><circle
       cx="138.735"
       cy="39.146198"
       r="1.42764"
       transform="rotate(-30.4708,138.735,39.1462)"
       fill="#949494"
       id="circle40-7" /><text
       xml:space="preserve"
       style="font-style:normal;font-variant:normal;font-weight:bold;font-stretch:normal;font-size:13.3333px;font-family:Calibri;-inkscape-font-specification:'Calibri, Bold';font-variant-ligatures:normal;font-variant-caps:all-small-caps;font-variant-numeric:normal;font-variant-east-asian:normal;text-align:start;writing-mode:lr-tb;direction:ltr;text-anchor:start;fill:#50ccaa;fill-opacity:1;stroke:#949494;stroke-width:0;stroke-dasharray:none;stroke-opacity:1"
       x="31.454317"
       y="136.46776"
       id="text45-1-8"><tspan
         sodipodi:role="line"
         id="tspan47"
         x="31.454317"
         y="136.46776">faible</tspan></text></g><g
     style="fill:none"
     id="g48"
     transform="translate(-15.8698,-0.05838317)"
     inkscape:label="indice_interpollen_3"><path
       d="m 66.38,97.0133 c 0,0 -19.0173,-0.6642 -18.4642,-21.3094 0.0378,-1.4129 22.4398,2.8838 18.4642,21.3094 z"
       fill="#f0e641"
       id="path1-2" /><path
       d="m 81.4523,60.0674 c 0,0 -17.3612,0.4051 -18.066,-19.5 -0.05,-1.4125 19.9142,1.056 18.066,19.5 z"
       fill="#ffffff"
       id="path2-9" /><path
       d="m 81.4523,39.8874 c 0,0 -17.4822,-4.5307 -7.735,-24.6588 0.2728,-0.5635 15.3182,8.7672 7.735,24.6588 z"
       fill="#ffffff"
       id="path3-1" /><path
       d="m 105.185,23.3827 c 0,0 2.94,17.4085 -16.2987,20.6846 -1.3933,0.2373 -0.8504,-20.3315 16.2987,-20.6846 z"
       fill="#ffffff"
       id="path4-3" /><path
       d="m 111.386,50.5674 c 0,0 -7.5,19 -23.4997,12.5 -1.0358,-0.4209 5.5,-16.5001 23.4997,-12.5 z"
       fill="#ffffff"
       id="path5-5" /><path
       d="m 109.886,74.0674 c 0,0 -8.037,16.417 -26.4997,9.5 -1.3235,-0.4959 6.4092,-16.3059 26.4997,-9.5 z"
       fill="#f0e641"
       id="path6-98" /><path
       d="m 88.8863,116.567 c 0,0 -12.3334,16 -30,3.5 -1.1537,-0.816 11.5,-14 30,-3.5 z"
       fill="#f0e641"
       id="path7-4" /><path
       d="m 76.5529,78.3281 c 0,0 -17.9811,2.5361 -19.4816,-19.4409 -0.0962,-1.4101 22.8283,1.3854 19.4816,19.4409 z"
       fill="#f0e641"
       id="path8-0" /><path
       d="m 103.323,94.3275 c 0,0 -13.0589,19.5365 -30.1717,8.4385 -1.1858,-0.769 8.735,-16.6986 30.1717,-8.4385 z"
       fill="#f0e641"
       id="path9-76" /><path
       d="m 87.8862,28.0663 c 0,0 -8.9987,-14.9981 4.5003,-26.99964 0.4679,-0.415961 8.0015,14.16204 -4.5003,26.99964 z"
       fill="#ffffff"
       id="path10-3" /><path
       d="m 50.5,114 c 0,0 -19.5842,-3.5 -16,-26 0.2223,-1.3957 19,5.5 16,26 z"
       fill="#f0e641"
       id="path11-6" /><path
       d="M 40.9832,125.079 C 67.2136,109.223 87.9306,86.8736 85.0592,42.4203 M 66.38,97.0133 c 0,0 -19.0173,-0.6642 -18.4642,-21.3094 0.0378,-1.4129 22.4398,2.8838 18.4642,21.3094 z M 81.4523,60.0674 c 0,0 -17.3612,0.4051 -18.066,-19.5 -0.05,-1.4125 19.9142,1.056 18.066,19.5 z m 0,-20.18 c 0,0 -17.4822,-4.5307 -7.735,-24.6588 0.2728,-0.5635 15.3182,8.7672 7.735,24.6588 z M 105.185,23.3827 c 0,0 2.94,17.4085 -16.2987,20.6846 -1.3932,0.2373 -0.8504,-20.3315 16.2987,-20.6846 z m 6.201,27.1847 c 0,0 -7.5,19 -23.4997,12.5 -1.0358,-0.4209 5.5,-16.5001 23.4997,-12.5 z m -1.5,23.5 c 0,0 -8.037,16.417 -26.4997,9.5 -1.3235,-0.4959 6.4092,-16.3059 26.4997,-9.5 z M 88.8863,116.567 c 0,0 -12.3334,16 -30,3.5 -1.1537,-0.816 11.5,-14 30,-3.5 z M 76.5529,78.3281 c 0,0 -17.9811,2.5361 -19.4816,-19.4409 -0.0962,-1.4101 22.8283,1.3854 19.4816,19.4409 z m 26.7701,15.9994 c 0,0 -13.0589,19.5365 -30.1717,8.4385 -1.1858,-0.769 8.735,-16.6986 30.1717,-8.4385 z M 87.8862,28.0663 c 0,0 -8.9987,-14.9981 4.5003,-26.99964 C 92.8544,0.6507 100.388,15.2287 87.8862,28.0663 Z M 50.5,114 c 0,0 -19.5842,-3.5 -16,-26 0.2223,-1.3957 19,5.5 16,26 z"
       stroke="#f0e641"
       id="path12-1" /><circle
       cx="139.94501"
       cy="11.1154"
       r="3.0337601"
       transform="rotate(-30.4708,139.945,11.1154)"
       fill="#efe641"
       stroke="#efe641"
       stroke-width="0.5"
       id="circle12-5" /><path
       d="m 133.074,44.6037 c 0.85,1.4441 0.368,3.3035 -1.076,4.1532 -1.444,0.8496 -3.304,0.3677 -4.153,-1.0764 -0.85,-1.4441 -0.368,-3.3035 1.076,-4.1531 1.444,-0.8497 3.303,-0.3678 4.153,1.0763 z"
       fill="#efe641"
       stroke="#efe641"
       stroke-width="0.5"
       id="path13-4" /><circle
       cx="120.243"
       cy="63.655602"
       r="3.0337601"
       transform="rotate(-30.4708,120.243,63.6556)"
       fill="#efe641"
       stroke="#efe641"
       stroke-width="0.5"
       id="circle13-2" /><circle
       cx="150.89101"
       cy="27.1693"
       r="3.0337601"
       transform="rotate(-30.4708,150.891,27.1693)"
       fill="#efe641"
       stroke="#efe641"
       stroke-width="0.5"
       id="circle14-0" /><circle
       cx="122.981"
       cy="20.533199"
       r="3.0337601"
       transform="rotate(-30.4708,122.981,20.5332)"
       fill="#efe641"
       stroke="#efe641"
       stroke-width="0.5"
       id="circle15-9" /><circle
       cx="115.971"
       cy="35.2407"
       r="1.45945"
       transform="rotate(-30.4708,115.971,35.2407)"
       fill="#949494"
       id="circle16-7" /><circle
       cx="115.971"
       cy="35.2407"
       r="1.45945"
       transform="rotate(-30.4708,115.971,35.2407)"
       fill="#949494"
       id="circle17-37" /><circle
       cx="115.971"
       cy="35.2407"
       r="1.45945"
       transform="rotate(-30.4708,115.971,35.2407)"
       fill="#949494"
       id="circle18-26" /><circle
       cx="115.971"
       cy="35.2407"
       r="1.45945"
       transform="rotate(-30.4708,115.971,35.2407)"
       fill="#949494"
       id="circle19-0" /><circle
       cx="115.971"
       cy="35.2407"
       r="1.45945"
       transform="rotate(-30.4708,115.971,35.2407)"
       fill="#949494"
       id="circle20-16" /><circle
       cx="132.34"
       cy="24.671801"
       r="1.45945"
       transform="rotate(-30.4708,132.34,24.6718)"
       fill="#949494"
       id="circle21-5" /><circle
       cx="132.34"
       cy="24.671801"
       r="1.45945"
       transform="rotate(-30.4708,132.34,24.6718)"
       fill="#949494"
       id="circle22-7" /><circle
       cx="132.34"
       cy="24.671801"
       r="1.45945"
       transform="rotate(-30.4708,132.34,24.6718)"
       fill="#949494"
       id="circle23-54" /><circle
       cx="132.34"
       cy="24.671801"
       r="1.45945"
       transform="rotate(-30.4708,132.34,24.6718)"
       fill="#949494"
       id="circle24-1" /><circle
       cx="132.34"
       cy="24.671801"
       r="1.45945"
       transform="rotate(-30.4708,132.34,24.6718)"
       fill="#949494"
       id="circle25-2" /><circle
       cx="135.259"
       cy="61.1581"
       r="1.45945"
       transform="rotate(-30.4708,135.259,61.1581)"
       fill="#949494"
       id="circle26-0" /><circle
       cx="135.259"
       cy="61.1581"
       r="1.45945"
       transform="rotate(-30.4708,135.259,61.1581)"
       fill="#949494"
       id="circle27-0" /><circle
       cx="135.259"
       cy="61.1581"
       r="1.45945"
       transform="rotate(-30.4708,135.259,61.1581)"
       fill="#949494"
       id="circle28-1" /><circle
       cx="135.259"
       cy="61.1581"
       r="1.45945"
       transform="rotate(-30.4708,135.259,61.1581)"
       fill="#949494"
       id="circle29-46" /><circle
       cx="135.259"
       cy="61.1581"
       r="1.45945"
       transform="rotate(-30.4708,135.259,61.1581)"
       fill="#949494"
       id="circle30-0" /><circle
       cx="110.419"
       cy="11.4143"
       r="1.45945"
       transform="rotate(-30.4708,110.419,11.4143)"
       fill="#949494"
       id="circle31-7" /><circle
       cx="110.419"
       cy="11.4143"
       r="1.45945"
       transform="rotate(-30.4708,110.419,11.4143)"
       fill="#949494"
       id="circle32-1" /><circle
       cx="110.419"
       cy="11.4143"
       r="1.45945"
       transform="rotate(-30.4708,110.419,11.4143)"
       fill="#949494"
       id="circle33-7" /><circle
       cx="110.419"
       cy="11.4143"
       r="1.45945"
       transform="rotate(-30.4708,110.419,11.4143)"
       fill="#949494"
       id="circle34-7" /><circle
       cx="110.419"
       cy="11.4143"
       r="1.45945"
       transform="rotate(-30.4708,110.419,11.4143)"
       fill="#949494"
       id="circle35-7" /><circle
       cx="141.826"
       cy="39.995998"
       r="1.45945"
       transform="rotate(-30.4708,141.826,39.996)"
       fill="#949494"
       id="circle36-7" /><circle
       cx="141.826"
       cy="39.995998"
       r="1.45945"
       transform="rotate(-30.4708,141.826,39.996)"
       fill="#949494"
       id="circle37-33" /><circle
       cx="141.826"
       cy="39.995998"
       r="1.45945"
       transform="rotate(-30.4708,141.826,39.996)"
       fill="#949494"
       id="circle38-5" /><circle
       cx="141.826"
       cy="39.995998"
       r="1.45945"
       transform="rotate(-30.4708,141.826,39.996)"
       fill="#949494"
       id="circle39-9" /><circle
       cx="141.826"
       cy="39.995998"
       r="1.45945"
       transform="rotate(-30.4708,141.826,39.996)"
       fill="#949494"
       id="circle40-9" /></g></svg>
