<?xml version="1.0" encoding="UTF-8" standalone="no"?>
<svg
   width="156"
   height="141"
   viewBox="0 0 156 141"
   fill="none"
   version="1.1"
   id="svg45"
   sodipodi:docname="indices_interpollen.svg"
   inkscape:version="1.4 (86a8ad7, 2024-10-11)"
   xml:space="preserve"
   inkscape:export-batch-path="Pictos"
   inkscape:export-batch-name=""
   xmlns:inkscape="http://www.inkscape.org/namespaces/inkscape"
   xmlns:sodipodi="http://sodipodi.sourceforge.net/DTD/sodipodi-0.dtd"
   xmlns="http://www.w3.org/2000/svg"
   xmlns:svg="http://www.w3.org/2000/svg"><defs
     id="defs45" /><sodipodi:namedview
     id="namedview45"
     pagecolor="#ffffff"
     bordercolor="#000000"
     borderopacity="0.25"
     inkscape:showpageshadow="2"
     inkscape:pageopacity="0.0"
     inkscape:pagecheckerboard="0"
     inkscape:deskcolor="#d1d1d1"
     inkscape:zoom="0.5"
     inkscape:cx="1280"
     inkscape:cy="107"
     inkscape:window-width="1920"
     inkscape:window-height="1009"
     inkscape:window-x="1912"
     inkscape:window-y="-8"
     inkscape:window-maximized="1"
     inkscape:current-layer="g52"
     showguides="true"><sodipodi:guide
       position="-816.323,4.132137"
       orientation="0,-1"
       id="guide49"
       inkscape:locked="false" /><inkscape:page
       x="0"
       y="0"
       width="156"
       height="141"
       id="page52"
       margin="0"
       bleed="0"
       inkscape:label="indice_interpollen_7" /><sodipodi:guide
       position="-123.0564,16.21768"
       orientation="0,-1"
       id="guide53"
       inkscape:locked="false" /></sodipodi:namedview><g
     style="fill:none"
     id="g52"
     transform="translate(43.2233,36.003065)"
     inkscape:label="indice_interpollen_7"><g
       id="g53"
       transform="translate(5.5877475,5.78222)"><path
         d="m 62.912267,82.997035 h -67.5 c 3.99999999,-10 13.5,-10 13.5,-10 0,0 3,-9.5001 14,-9.5 0.5706,0 3.062,-2.4764 6.9279,-2.2009 1.6274,0.116 3.4983,0.7196 5.5721,2.2009 0,0 9.5,0 14.5,9.5 0,0 8,-0.5001 13,10 z"
         fill="#d9d9d9"
         id="path1-9" /><path
         d="m 29.412267,67.552635 c 1,-5.5557 0,-10.5557 0,-10.5557 m 0,-22.5 c -2,9.5 0,16.5 0,16.5 m 0,0 c 0,0 1.5,-5.5 6,-7.5 m -6,7.5 v 6 m 0,0 c 0,0 -1,-5 -6.5,-8 m 4,17.5 c 0.5,0.6667 3,2 5,0 m -36.5,16.5001 h 67.5 c -5,-10.5001 -13,-10 -13,-10 -5,-9.5 -14.5,-9.5 -14.5,-9.5 -7,-5.0001 -11.6892,0 -12.5,0 -11,-10e-5 -14,9.5 -14,9.5 0,0 -9.50000001,0 -13.5,10 z"
         stroke="#5e5e5e"
         id="path2-3" /><path
         d="m 22.912267,48.996935 c -0.5,-10 -17,-6.5 -17,-6.5 0,0 11.5,19 17,6.5 z"
         fill="#d9d9d9"
         id="path3-5" /><path
         d="m 29.412267,34.496935 c -4.8333,-1.6667 -11.5,-7.5 0,-19 2,9.5 11,13 0,19 z"
         fill="#d9d9d9"
         id="path4-7" /><path
         d="m 35.412767,42.996935 c -0.5002,-9 18,-7 18,-7 0,0 -8.0002,18 -18,7 z"
         fill="#d9d9d9"
         id="path5-6" /><path
         d="m 22.912267,48.996935 c -0.5,-10 -17,-6.5 -17,-6.5 0,0 11.5,19 17,6.5 z"
         stroke="#5e5e5e"
         id="path6-6" /><path
         d="m 29.412267,34.496935 c -4.8333,-1.6667 -11.5,-7.5 0,-19 2,9.5 11,13 0,19 z"
         stroke="#5e5e5e"
         id="path7-58" /><path
         d="m 35.412767,42.996935 c -0.5002,-9 18,-7 18,-7 0,0 -8.0002,18 -18,7 z"
         stroke="#5e5e5e"
         id="path8-25" /></g></g></svg>
